<svg width="120" height="162" viewBox="0 0 120 162" fill="none" xmlns="http://www.w3.org/2000/svg">
<mask id="mask0_72_4240" style="mask-type:luminance" maskUnits="userSpaceOnUse" x="12" y="10" width="94" height="83">
<path d="M12.5815 10.4308H105.983V92.361H12.5815V10.4308Z" fill="white"/>
</mask>
<g mask="url(#mask0_72_4240)">
<mask id="mask1_72_4240" style="mask-type:luminance" maskUnits="userSpaceOnUse" x="12" y="10" width="94" height="83">
<path d="M12.5815 34.6032C12.5815 60.6256 59.2824 92.361 59.2824 92.361C59.2824 92.361 105.777 60.4014 105.983 34.6032C105.983 21.284 95.13 10.4308 81.8108 10.4308C71.5735 10.4308 62.756 16.9885 59.2824 25.9917C55.8088 16.9885 46.9913 10.4308 36.7539 10.4308C23.4348 10.4308 12.5815 21.284 12.5815 34.6032Z" fill="white"/>
</mask>
<g mask="url(#mask1_72_4240)">
<path d="M12.5815 10.4308H105.983V92.361H12.5815V10.4308Z" fill="#1B9CE4"/>
</g>
</g>
<mask id="mask2_72_4240" style="mask-type:luminance" maskUnits="userSpaceOnUse" x="12" y="4" width="95" height="91">
<path d="M106.169 4.55701H12.1519V94.0973H106.169V4.55701Z" fill="black" fill-opacity="0.8196"/>
</mask>
<g mask="url(#mask2_72_4240)">
<mask id="mask3_72_4240" style="mask-type:luminance" maskUnits="userSpaceOnUse" x="24" y="27" width="76" height="66">
<path d="M99.5705 27.0198H24.2115V92.5241H99.5705V27.0198Z" fill="white"/>
</mask>
<g mask="url(#mask3_72_4240)">
<mask id="mask4_72_4240" style="mask-type:luminance" maskUnits="userSpaceOnUse" x="24" y="27" width="75" height="66">
<path d="M24.5873 27.1578H98.9183V92.361H24.5873V27.1578Z" fill="white"/>
</mask>
<g mask="url(#mask4_72_4240)">
<mask id="mask5_72_4240" style="mask-type:luminance" maskUnits="userSpaceOnUse" x="24" y="27" width="75" height="66">
<path d="M24.5873 46.3961C24.5873 67.104 61.7528 92.361 61.7528 92.361C61.7528 92.361 98.7553 66.9251 98.9183 46.3961C98.9183 35.7965 90.2819 27.1578 79.6823 27.1578C71.535 27.1578 64.5176 32.3773 61.7528 39.5418C58.988 32.3773 51.9706 27.1578 43.8234 27.1578C33.2237 27.1578 24.5873 35.7965 24.5873 46.3961Z" fill="white"/>
</mask>
<g mask="url(#mask5_72_4240)">
<path d="M24.5873 27.1578H98.9183V92.361H24.5873V27.1578Z" fill="#64EBB6"/>
</g>
</g>
</g>
</g>
<mask id="mask6_72_4240" style="mask-type:luminance" maskUnits="userSpaceOnUse" x="52" y="43" width="20" height="40">
<path d="M52.5005 43.2261H71.7456V82.6695H52.5005V43.2261Z" fill="white"/>
</mask>
<g mask="url(#mask6_72_4240)">
<path d="M59.4228 82.1239C59.4432 82.1125 59.6107 82.1624 59.6039 82.1692C59.5971 82.1759 59.3662 82.2733 59.3571 82.2914C59.3481 82.3095 59.339 82.3594 59.3458 82.3752C59.3526 82.3911 59.33 82.4386 59.33 82.4386C59.33 82.4386 59.1714 82.4137 59.1601 82.425C59.1488 82.4364 59.3028 82.6605 59.4432 82.6651C59.5858 82.6718 59.8825 82.6356 60.0138 82.5518C60.1429 82.4703 60.2153 82.4567 60.2697 82.3639C60.324 82.2733 60.2833 82.2054 60.4259 82.151C60.5708 82.099 60.795 81.9495 60.8607 81.757C60.9263 81.5623 61.0554 81.3019 61.3724 81.1932C61.6894 81.0822 61.8932 80.8875 62.0857 80.8422C62.2782 80.7947 62.525 80.849 62.713 80.7064C62.9009 80.566 62.8986 80.489 62.9552 80.3961C63.0141 80.301 63.1047 80.2603 63.1477 80.1901C63.193 80.1199 63.2519 79.9251 63.3447 80.0361C63.4353 80.147 63.6074 80.1742 63.7342 80.0972C63.8633 80.0202 63.9652 79.821 63.9312 79.7078C63.8972 79.5945 63.7999 79.5175 63.7659 79.4338C63.7319 79.35 63.8225 79.2821 63.904 79.3658C63.9855 79.4496 64.1373 79.5108 64.1961 79.3636C64.2573 79.2141 64.1961 78.9877 64.1961 78.9877C64.1961 78.9877 64.443 78.802 64.4679 78.6978C64.4905 78.5937 64.4203 78.4646 64.4226 78.4125C64.4271 78.3627 64.4497 78.3152 64.4475 78.2495C64.443 78.1816 64.4769 77.9642 64.4543 77.8872C64.4294 77.8102 64.5494 77.7808 64.6807 77.7762C64.8098 77.7717 65.0634 77.7694 65.1109 77.8872C65.1608 78.0049 65.2242 78.0185 65.2242 78.0185C65.2242 78.0185 65.3374 77.8645 65.471 77.8396C65.6068 77.8125 65.8038 77.74 65.9624 77.7219C66.1186 77.7038 66.2635 77.6019 66.4424 77.5068C66.6236 77.4139 66.7662 77.3324 66.8976 77.2984C67.0289 77.2622 67.0108 77.1196 67.1897 77.106C67.3685 77.0924 67.4727 77.2124 67.5633 77.106C67.6539 76.9973 67.5859 76.721 67.7829 76.6033C67.9799 76.4878 68.1973 76.4267 68.2471 76.4742C68.2969 76.524 68.2992 76.5285 68.3128 76.5331C68.3264 76.5376 68.3037 76.2953 68.4849 76.3497C68.6638 76.404 68.7317 76.2387 68.8268 76.1074C68.9219 75.9783 69.0012 75.8855 69.1733 75.8764C69.3431 75.8673 69.411 75.8628 69.411 75.8628C69.411 75.8628 69.479 75.5843 69.7394 75.505C69.9998 75.4235 70.0903 75.2763 70.1809 75.1246C70.2692 74.9729 70.5183 74.8823 70.5568 74.7397C70.5976 74.597 70.5976 74.588 70.67 74.4838C70.7425 74.3819 70.8104 74.194 70.7878 74.1124C70.7651 74.0332 70.8784 73.9426 70.8172 73.8566C70.7538 73.7683 70.5704 73.6799 70.584 73.4014C70.5976 73.1206 70.6179 73.0278 70.7742 72.8716C70.9282 72.7176 70.9123 72.7017 70.8851 72.5885C70.858 72.473 70.8217 72.4504 70.8217 72.4504C70.8217 72.4504 70.7131 72.4662 70.7131 72.3892C70.7131 72.3123 70.7221 72.2398 70.7221 72.2398L70.6497 72.2919C70.6497 72.2919 70.584 72.2126 70.6859 72.07C70.6859 72.07 70.867 71.8028 71.064 71.6307C71.2588 71.4608 71.2927 71.4676 71.3176 71.411C71.3403 71.3521 71.0255 71.0782 70.9825 70.9921C70.9395 70.9038 70.8874 70.6751 70.8353 70.4487C70.781 70.22 70.7063 70.1498 70.7561 70.0139C70.8082 69.8803 70.8534 69.7399 70.8172 69.6856C70.781 69.6335 70.6315 69.2598 70.7017 69.2032C70.7742 69.1466 70.824 69.1625 70.8444 69.0583C70.8648 68.9542 70.8942 68.9247 70.8353 68.7798C70.7742 68.6371 70.6791 68.0054 70.6564 67.9397C70.6315 67.8718 70.4255 67.6567 70.4323 67.5208C70.4391 67.3827 70.4708 67.3419 70.4028 67.2287C70.3349 67.1132 70.2738 67.0204 70.3009 66.923C70.3281 66.8256 70.3394 66.7011 70.1673 66.4339C69.9952 66.1644 69.8118 65.8225 69.8458 65.6074C69.8798 65.3923 69.9884 65.2768 69.9907 65.2655C69.9952 65.2564 69.8367 65.2655 69.8164 65.1341C69.796 65.0051 69.6941 64.9462 69.6941 64.9462C69.6941 64.9462 69.685 64.8443 69.685 64.8239C69.685 64.8035 69.6171 64.8873 69.5424 64.8873C69.4676 64.8873 69.3839 64.8103 69.2752 64.7152C69.1687 64.6224 68.7362 63.8774 68.5981 63.7234C68.46 63.5694 68.2947 63.3294 68.2607 63.2524C68.2268 63.1754 68.2585 63.0939 68.2313 63.0011C68.2041 62.906 68.1294 62.8969 68.1294 62.8969C68.1294 62.8969 68.0977 62.9513 68.1203 62.9807C68.1407 63.0124 68.1249 63.026 68.1181 63.0328C68.1113 63.0418 68.066 63.0531 68.066 63.0531C68.066 63.0531 67.9596 63.0101 67.9029 62.8177C67.8441 62.6252 67.6788 62.4961 67.4523 62.367C67.2259 62.2402 67.1127 62.0636 66.9496 61.9504C66.7843 61.8349 66.2794 61.579 66.0439 61.3684C65.8061 61.1579 65.3306 60.7571 65.3057 60.6257C65.2808 60.4944 65.3147 60.4219 65.2785 60.3766C65.2423 60.3291 64.5879 59.8807 64.3388 59.6543C64.0897 59.4256 63.9561 59.3712 63.8791 59.1357C63.8044 58.898 63.818 58.8459 63.7116 58.7236C63.6051 58.6014 63.5983 58.3772 63.6776 58.239C63.7568 58.0987 63.7772 58.076 63.6617 57.9152C63.5463 57.7567 63.5372 57.6707 63.5372 57.6413C63.5372 57.6118 63.5055 57.7137 63.3832 57.6413C63.2609 57.5688 63.0503 57.2744 62.8783 57.2337C62.7084 57.1952 62.636 57.1816 62.3891 56.8827C62.1423 56.586 62.0042 56.457 61.9544 56.183C61.9068 55.9113 61.814 55.746 61.6849 55.6441C61.5581 55.5444 61.4132 55.3135 61.4902 55.1595C61.5672 55.0055 61.6577 55.044 61.7098 54.9874C61.7619 54.9308 61.7506 54.7904 61.771 54.693C61.7913 54.5934 62.0336 54.4802 61.9793 54.376C61.9272 54.2741 61.8638 54.1745 61.9136 54.1111C61.9612 54.0454 61.9725 53.8869 61.9906 53.6808C62.0087 53.4748 62.0744 53.3502 62.1627 53.2483C62.2488 53.1442 62.2442 53.0785 62.2918 52.9109C62.3416 52.7411 62.4367 52.6211 62.5001 52.6256C62.5635 52.6301 62.5386 52.6664 62.6292 52.7434C62.722 52.8226 62.8669 52.6641 62.9326 52.5509C63.0005 52.4354 63.2383 52.0935 63.4761 51.9961C63.7116 51.8965 63.8406 51.9214 63.9131 51.944C63.9878 51.9667 64.0172 51.9282 63.9833 51.6972C63.9493 51.4685 63.9833 51.4187 63.9765 51.2987C63.9697 51.1764 63.8882 51.0836 63.9584 51.0066C64.0286 50.9319 64.092 50.8798 64.1758 50.8209C64.2618 50.7643 64.572 50.6669 64.5947 50.4722C64.6196 50.2774 64.6852 50.0419 64.8754 50.0148C65.0634 49.9876 65.4302 50.0555 65.6023 49.9582C65.7744 49.8608 65.951 49.8676 65.9578 49.6842C65.9646 49.4985 65.8763 49.1996 66.019 49.1271C66.1594 49.0524 66.3903 49.0049 66.4537 48.9822C66.5171 48.9596 66.6756 48.7535 66.7775 48.7082C66.8772 48.6607 66.9111 48.7037 66.9723 48.5905C67.0334 48.475 66.9927 48.3957 67.1693 48.4116C67.3436 48.4297 67.4614 48.4523 67.5157 48.4093C67.5701 48.3686 67.5905 48.3278 67.5905 48.3278C67.5905 48.3278 67.4002 48.2916 67.2893 48.1376C67.1783 47.9836 67.124 48.0108 66.8772 48.1014C66.6326 48.1919 66.3654 48.2984 66.302 48.158C66.2363 48.0153 66.225 47.9225 66.0982 48.0266C65.9737 48.1308 65.9918 48.1308 65.9918 48.1308C65.9918 48.1308 66.0009 47.9202 65.8763 47.8455C65.7518 47.7708 65.7087 47.8093 65.6431 47.8455C65.5797 47.8817 65.4302 47.7504 65.2898 47.6575C65.1472 47.5647 64.9185 47.644 65.0362 47.5171C65.154 47.3881 65.2853 47.302 65.1449 47.2477C65.0023 47.1956 64.8777 47.293 64.8777 47.293C64.8777 47.293 64.9117 47.1752 64.7849 47.1413C64.6558 47.1073 64.6241 47.1616 64.4543 47.105C64.2822 47.0462 64.2505 47.1571 64.2301 46.9669C64.2097 46.7744 64.2007 46.6589 64.2301 46.5208C64.2618 46.3827 64.2754 46.2446 64.2346 46.1993C64.1939 46.1517 63.8836 46.0838 63.8497 46.077C63.8157 46.0702 63.8995 45.8958 63.9448 45.692C63.9878 45.4883 63.9606 45.366 64.0829 45.443C64.2029 45.5222 64.2641 45.5947 64.3184 45.4249C64.3728 45.2528 64.2754 45.2392 64.4158 45.0784C64.5584 44.9176 64.6286 44.9199 64.5788 44.8497C64.5267 44.7795 64.409 44.8497 64.409 44.8497C64.409 44.8497 64.3026 44.6459 64.2414 44.6346C64.1803 44.6255 64.1373 44.6821 64.1373 44.6821C64.1373 44.6821 64.0625 44.5848 63.9108 44.5576C63.7591 44.5327 63.7523 44.5689 63.6097 44.6097C63.4693 44.6482 63.304 44.6685 63.236 44.6799C63.1681 44.6889 63.1862 44.6618 63.0798 44.5327C62.9756 44.4013 62.8375 44.3311 62.6767 44.3402C62.5137 44.3515 62.559 44.3878 62.405 44.4512C62.2555 44.5146 62.1287 44.4987 62.1287 44.4987C62.1287 44.4987 61.9114 44.2677 61.7959 44.193C61.6804 44.1183 61.3543 44.1183 61.3543 44.1183C61.3543 44.1183 61.3951 43.9824 61.3362 43.8737C61.2796 43.7673 61.232 43.7537 61.1007 43.6405C60.9694 43.525 60.9354 43.5296 60.872 43.4322C60.8086 43.3348 60.7633 43.2239 60.7135 43.2465C60.6614 43.2714 60.564 43.3756 60.5233 43.4526C60.4848 43.5296 60.4916 43.602 60.444 43.6065C60.3965 43.6088 60.3285 43.5658 60.3285 43.5567C60.3285 43.5454 60.2946 43.593 60.2651 43.6269C60.2334 43.6609 60.0817 43.6337 60.0817 43.6337C60.0817 43.6337 59.9821 43.6926 59.9753 43.7039C59.9685 43.713 59.8508 43.7945 59.8304 43.8217C59.81 43.8466 59.7919 43.8987 59.7715 43.9236C59.7511 43.9507 59.6243 43.9417 59.6039 43.9643C59.5836 43.9892 59.459 44.0073 59.4409 44.0685C59.4251 44.1296 59.3934 44.2089 59.4251 44.2791C59.4545 44.3515 59.527 44.4285 59.5088 44.4874C59.493 44.5485 59.4998 44.5848 59.4341 44.6119C59.3707 44.6391 59.2756 44.7138 59.1964 44.7455C59.1148 44.7795 59.1012 44.7976 58.9993 44.7795C58.8997 44.7636 58.6552 44.8814 58.5759 44.972C58.4944 45.0625 58.4061 45.1056 58.3721 45.1418C58.3381 45.178 58.2906 45.1916 58.2906 45.1916C58.2906 45.1916 58.1185 45.1192 58.0596 45.015C57.9985 44.9108 58.0121 44.8271 57.9804 44.7999C57.9509 44.7727 57.7381 44.861 57.6566 44.9312C57.5773 45.0014 57.4777 44.9154 57.4233 45.212C57.369 45.5064 57.292 45.726 57.292 45.726C57.292 45.726 57.1675 45.6264 56.9138 45.3818C56.6625 45.135 56.393 44.9199 56.393 44.9199C56.393 44.9199 56.2662 45.0105 56.2436 45.1531C56.2209 45.2958 56.2662 45.2822 56.1983 45.3547C56.1326 45.4271 56.1326 45.4271 56.1326 45.4271C56.1326 45.4271 55.9469 45.3048 55.9062 45.1214C55.8677 44.938 55.7318 44.8859 55.6956 44.895C55.6594 44.904 55.5394 45.0422 55.5212 45.1486C55.5031 45.2573 55.4352 45.2029 55.3446 45.2958C55.2563 45.3909 55.2291 45.4226 55.2155 45.4928C55.202 45.5652 55.1929 45.5517 55.0842 45.6536C54.9755 45.7577 54.9438 45.8324 54.9393 45.8551C54.937 45.8777 54.7083 45.8596 54.5974 45.7147C54.4842 45.5698 54.4751 45.4362 54.3596 45.3841C54.2464 45.3297 54.1015 45.2324 54.0517 45.212C54.0018 45.1916 53.986 45.1622 53.986 45.1622L53.8931 45.1803L53.8003 45.0784L53.6939 45.1599C53.6939 45.1599 53.5716 45.0218 53.5376 44.9878C53.5037 44.9539 53.472 44.9425 53.472 44.9425C53.472 44.9425 53.3904 44.9833 53.3474 45.0852C53.3067 45.1894 53.2387 45.2324 53.2297 45.2369C53.2206 45.2414 53.198 45.2618 53.2297 45.3184C53.2614 45.375 53.2455 45.3796 53.1482 45.4883C53.0508 45.5992 52.8447 45.7668 52.8538 45.846C52.8628 45.9275 52.5889 45.8641 52.5549 45.9275C52.5209 45.9909 53.0168 46.5435 53.087 46.6046C53.1595 46.6657 53.4856 46.9941 53.4856 46.9941C53.4856 46.9941 53.4946 47.1231 53.4946 47.1345C53.4946 47.1435 53.5558 47.1979 53.6712 47.293C53.7867 47.3858 53.8388 47.379 53.866 47.5692C53.8931 47.7617 53.8569 48.1784 54.0969 48.0357C54.3347 47.8953 54.3483 47.6077 54.3483 47.6077C54.3483 47.6077 54.2849 47.9429 54.4909 47.9021C54.697 47.8613 54.7174 47.8251 54.7242 47.841C54.731 47.8591 54.7763 48.081 54.7332 48.2282C54.6902 48.3754 54.4638 48.5271 54.4796 48.6176C54.4977 48.7082 54.4842 48.7309 54.4932 48.7739C54.5045 48.8169 54.4638 49.3423 54.7129 49.5755C54.9619 49.811 55.0095 49.9921 55.0412 50.0465C55.0706 50.0986 55.2903 50.085 55.3107 50.0963C55.331 50.1054 55.3786 50.1438 55.3922 50.2072C55.4035 50.2707 55.3922 50.291 55.4148 50.3069C55.4375 50.325 55.6231 50.325 55.6571 50.3499C55.6911 50.3771 55.7386 50.445 55.7862 50.4246C55.8337 50.4043 56.0013 50.3205 56.0126 50.3273C56.0217 50.3341 56.0149 50.4473 56.0647 50.4812C56.1168 50.5152 56.2617 50.4994 56.3138 50.5446C56.3659 50.5899 56.3953 50.6918 56.4927 50.7167C56.5878 50.7416 56.71 50.7326 56.7168 50.6058C56.7236 50.4812 56.8255 50.1959 56.9818 50.1529C57.1403 50.1099 57.412 50.1416 57.4573 50.0442C57.5003 49.9446 57.5003 49.8653 57.6996 49.9378C57.8966 50.0125 58.0257 50.0238 58.1661 50.1642C58.3087 50.3046 58.5465 50.4337 58.5804 50.5107C58.6144 50.5877 58.5691 50.6375 58.7004 50.6556C58.8295 50.6737 58.902 50.6307 58.9201 50.7303C58.9382 50.8277 58.9676 50.8617 58.834 50.9205C58.7027 50.9771 58.4016 51.1741 58.3631 51.2557C58.3246 51.3349 58.3087 51.3349 58.3631 51.4142C58.4174 51.4934 58.5419 51.6066 58.594 51.5659C58.6461 51.5251 58.791 51.3847 58.902 51.3576C59.0129 51.3304 59.0673 51.2806 59.1035 51.3259C59.1397 51.3734 59.1352 51.498 59.0628 51.5319C58.988 51.5659 58.9246 51.5297 58.9156 51.6383C58.9065 51.7448 58.8091 51.8829 59.0243 51.9531C59.2371 52.0233 59.3481 51.9735 59.3911 52.055C59.4364 52.1388 59.4817 52.1886 59.5971 52.1659C59.7104 52.1433 59.7353 52.1727 59.7715 52.2294C59.8077 52.2882 59.8598 52.3516 59.7353 52.5124C59.613 52.6732 59.536 52.646 59.5066 52.7909C59.4771 52.9358 59.536 53.1034 59.4205 53.1374C59.3073 53.1713 59.2462 53.1668 59.185 53.2393C59.1239 53.3095 59.0628 53.3231 59.0129 53.4317C58.9631 53.5382 58.8725 53.5993 58.7639 53.5744C58.6574 53.5495 58.4831 53.357 58.3766 53.3774C58.268 53.3978 58.3291 53.4793 58.1479 53.4227C57.9691 53.3638 57.9192 53.314 57.8785 53.3457C57.8377 53.3774 57.7381 53.4612 57.6973 53.4634C57.6566 53.4657 57.4958 53.4272 57.4958 53.4272C57.4958 53.4272 57.4686 53.5133 57.5252 53.665C57.5841 53.8144 57.7109 53.7714 57.5705 53.9593C57.4279 54.1473 57.3871 54.2016 57.249 54.2786C57.1108 54.3556 57.0678 54.419 57.0678 54.419C57.0678 54.419 57.2014 54.6341 57.3509 54.6341C57.4981 54.6341 57.6181 54.5843 57.729 54.7066C57.84 54.8311 57.9668 54.9693 58.0687 54.9851C58.1706 55.0032 58.2634 55.0531 58.3449 55.1459C58.4265 55.241 58.474 55.3406 58.5646 55.2976C58.6552 55.2546 58.714 55.3225 58.7389 55.3814C58.7684 55.4425 58.9926 55.6803 59.2009 55.755C59.4092 55.8275 59.6334 55.8161 59.656 55.832C59.6787 55.8479 59.7081 55.9135 59.7443 55.9362C59.7828 55.9565 59.9255 55.9248 59.9685 55.9452C60.0115 55.9679 59.9481 56.0018 60.0727 56.0177C60.1995 56.0335 60.3172 56.0381 60.3331 56.0879C60.3489 56.1354 60.4101 56.2079 60.3489 56.2758C60.2901 56.3415 60.1406 56.5408 60.1632 56.6653C60.1859 56.7921 60.3376 56.9302 60.3376 56.9302C60.3376 56.9302 60.3285 57.0548 60.3942 57.1114C60.4621 57.168 60.6229 57.2563 60.6705 57.2631C60.7203 57.2699 60.7316 57.2699 60.7316 57.2699C60.7316 57.2699 60.6546 57.3197 60.7452 57.3967C60.838 57.4759 60.8788 57.528 60.9694 57.485C61.0577 57.442 61.1618 57.408 61.189 57.451C61.2162 57.4941 61.2185 57.5778 61.3022 57.7047C61.3883 57.8292 61.4222 57.8994 61.463 57.9447C61.5038 57.9922 61.5558 58.0194 61.5491 58.0398C61.5423 58.0602 61.4019 58.196 61.5083 58.2685C61.6147 58.3387 61.6396 58.3092 61.6351 58.3862C61.6306 58.461 61.6781 58.5606 61.7732 58.6489C61.8683 58.7395 62.3869 59.2671 62.4888 59.4029C62.5884 59.5388 62.9349 59.9192 63.0345 59.9373C63.1319 59.9532 63.1885 59.7018 63.2292 59.8717C63.27 60.0438 63.2496 60.0302 63.3198 60.1479C63.39 60.2657 63.4896 60.3789 63.5463 60.5125C63.6029 60.6484 63.5893 60.6348 63.7274 60.6574C63.8655 60.6801 63.8497 60.6914 63.8406 60.748C63.8293 60.8046 63.7251 60.7888 63.7863 60.8884C63.8474 60.9903 63.8791 60.9269 63.8723 61.1805C63.8655 61.4364 63.8927 61.5994 64.0172 61.6628C64.144 61.7285 64.1576 61.7534 64.1576 61.7534C64.1576 61.7534 64.0512 62.0251 64.221 62.0885C64.3886 62.1542 64.5131 61.8689 64.606 61.8689C64.6966 61.8689 64.7577 61.8915 64.7532 62.0591C64.7509 62.2266 64.803 62.2742 64.8619 62.3036C64.9185 62.3353 64.9434 62.3648 64.9434 62.3738C64.9434 62.3852 64.8415 62.435 64.9592 62.4553C65.077 62.4757 65.2423 62.3942 65.3238 62.4848C65.4053 62.5754 65.4053 62.6863 65.4076 62.7225C65.4121 62.761 65.5049 62.8743 65.6227 62.8924C65.7427 62.9082 65.7427 62.9286 65.822 63.0192C65.9035 63.1098 66.0416 63.112 66.1163 63.0962C66.1911 63.0781 66.1933 63.1324 66.1797 63.2366C66.1662 63.3407 66.1435 63.5106 66.0144 63.549C65.8876 63.5853 65.6408 63.5853 65.6023 63.7189C65.5661 63.8547 65.6204 63.8978 65.6748 64.0042C65.7291 64.1129 65.6612 64.088 65.7382 64.1763C65.8152 64.2623 65.8673 64.2442 65.9103 64.3189C65.9533 64.3937 65.9148 64.4639 65.9782 64.525C66.0416 64.5839 66.1231 64.5907 66.2069 64.6088C66.2907 64.6246 66.3156 64.636 66.336 64.7197C66.3564 64.8035 66.302 64.8669 66.4334 64.8556C66.5647 64.8465 66.5466 64.8126 66.5737 64.9371C66.6009 65.0617 66.6145 65.1024 66.6145 65.1409C66.6145 65.1817 66.5715 65.2904 66.5647 65.3266C66.5579 65.3628 66.5035 65.304 66.5352 65.3968C66.5647 65.4896 66.6145 65.4602 66.5805 65.5847C66.5466 65.7093 66.5239 65.7795 66.4673 65.8067C66.4084 65.8316 66.3767 65.7183 66.2975 65.8451C66.2205 65.9742 66.1865 65.9878 66.3043 66.0784C66.422 66.169 66.4809 66.2256 66.4832 66.2414C66.4877 66.2595 66.3382 66.3818 66.379 66.4837C66.4198 66.5833 66.4198 66.7124 66.4152 66.7237C66.413 66.7373 66.3428 67.0838 66.3292 67.2106C66.3156 67.3396 66.336 67.3464 66.2069 67.4461C66.0801 67.5457 66.0326 67.6136 66.0326 67.7019C66.0326 67.788 66.0914 67.8808 66.0461 67.9963C65.9986 68.1095 65.8763 68.1911 65.9239 68.3586C65.9714 68.5262 66.139 68.5126 66.1729 68.6326C66.2069 68.7549 66.2001 69.0764 66.2273 69.1036C66.2545 69.1285 66.336 69.0221 66.4628 69.398C66.5919 69.7739 66.6598 70.195 66.5579 70.4102C66.456 70.6253 66.1933 71.1076 66.3088 71.4314C66.422 71.7529 66.5171 72.2421 66.5103 72.43C66.5035 72.6179 66.3903 72.8059 66.302 72.9055C66.2137 73.0074 66.2477 73.0142 66.1662 73.0595C66.0846 73.1071 66.0054 72.8331 65.8559 72.8534C65.7087 72.8716 65.4438 73.0595 65.1743 73.295C64.9049 73.5305 64.7101 73.5441 64.5947 73.5645C64.4792 73.5848 64.4611 73.5713 64.3728 73.6981C64.2844 73.8249 64.332 73.852 64.1825 73.8588C64.0354 73.8656 63.5213 73.7116 63.5621 73.886C63.6029 74.0604 63.6029 74.0536 63.5757 74.2008C63.5485 74.3479 63.51 74.2755 63.5485 74.3887C63.5893 74.5019 63.6572 74.5087 63.5893 74.5427C63.5213 74.5766 63.3538 74.5631 63.3334 74.5699C63.313 74.5766 63.3538 74.717 63.1862 74.5699C63.0164 74.4227 63.0571 74.3751 62.8896 74.3751C62.7197 74.3751 62.5046 74.3751 62.5046 74.3751C62.5046 74.3751 62.5794 74.5495 62.4503 74.6242C62.3212 74.6967 62.242 74.6899 62.2012 74.6491C62.1604 74.6106 61.9566 74.6763 61.9838 74.7986C62.011 74.9186 62.1061 74.8914 62.1197 74.9661C62.1333 75.0386 62.1604 75.2809 62.1536 75.4077C62.1469 75.5367 62.1559 75.7949 62.3257 75.8402C62.4933 75.8877 62.5182 75.9647 62.5658 76.0281C62.6111 76.0915 62.7537 76.1527 62.8081 76.1527C62.8624 76.1527 62.8918 76.1255 62.9122 76.2025C62.9326 76.2795 62.996 76.3315 62.9485 76.37C62.9009 76.4108 62.7967 76.4176 62.7967 76.447C62.7967 76.4787 62.8013 76.524 62.8624 76.6735C62.9213 76.8207 62.9281 76.8297 62.9213 76.841C62.9145 76.8501 62.7265 76.9339 62.5884 76.789C62.4503 76.6463 62.3461 76.6055 62.3461 76.6055C62.3461 76.6055 62.3801 76.7391 62.2782 76.7459C62.1763 76.7527 62.1129 76.7527 62.0948 76.6689C62.0789 76.5852 61.9951 76.4312 61.9363 76.3633C61.8774 76.2976 61.857 76.2659 61.857 76.2659C61.857 76.2659 61.7483 76.37 61.6034 76.4085C61.4585 76.4448 60.992 76.4651 60.992 76.4651C60.992 76.4651 60.9196 76.5784 60.7882 76.6599C60.6569 76.7391 60.5074 76.6961 60.358 76.6123C60.2108 76.5285 60.0885 76.4787 60.0795 76.4946C60.0681 76.5104 59.9232 76.6735 60.0115 76.8161C60.0998 76.961 60.1202 77.0041 60.1202 77.0222C60.1202 77.038 59.9232 77.226 59.776 77.3256C59.6266 77.4275 59.5994 77.5385 59.5654 77.5883C59.5337 77.6381 59.1443 77.5679 59.0311 77.5928C58.9156 77.6155 58.5555 77.8691 58.5555 77.8691C58.5555 77.8691 58.7616 78.0932 58.8159 78.2993C58.8703 78.5054 58.825 78.4963 58.8703 78.5054C58.9156 78.5144 58.9518 78.1838 59.2937 78.3967C59.6356 78.6118 59.9776 78.7295 60.0478 78.7907C60.1202 78.8541 60.1202 78.9084 60.0931 78.9967C60.0659 79.0873 59.9142 79.273 59.7511 79.3455C59.5904 79.4179 59.5088 79.4972 59.527 79.5515C59.5451 79.6059 59.4364 81.0981 59.4273 81.3223C59.4183 81.5464 59.3911 81.8952 59.3843 81.9472C59.3752 82.0016 59.4228 82.1239 59.4228 82.1239Z" fill="white"/>
</g>
<path d="M80.7194 63.3339C80.5722 63.2479 80.3367 63.1799 80.5246 63.0848C80.7126 62.992 80.7601 62.9173 80.8281 63.0848C80.896 63.2524 80.8756 63.3067 80.8281 63.3339C80.7805 63.3611 80.7194 63.3339 80.7194 63.3339Z" fill="white"/>
<path d="M80.2167 63.1368C80.2167 63.1368 80.1442 63.2137 80.2438 63.3247C80.3412 63.4357 80.391 63.4719 80.4091 63.4062C80.4273 63.3383 80.4137 63.2251 80.3457 63.1662C80.2801 63.1051 80.2167 63.1368 80.2167 63.1368Z" fill="white"/>
<path d="M77.4428 62.5437C77.3364 62.4713 77.3024 62.3581 77.4428 62.3354C77.5809 62.3105 77.6081 62.3422 77.6149 62.426C77.6217 62.5098 77.5877 62.5528 77.522 62.5686C77.4586 62.5868 77.4428 62.5437 77.4428 62.5437Z" fill="white"/>
<path d="M76.7114 62.3126C76.777 62.2537 76.8268 62.2084 76.9491 62.1948C77.0691 62.1835 77.119 62.2537 77.1303 62.3126C77.1393 62.3737 77.0465 62.4847 76.8835 62.4552C76.7227 62.4235 76.7114 62.3126 76.7114 62.3126Z" fill="white"/>
<path d="M75.9189 63.8455C75.9846 63.7844 76.0344 63.7414 76.1566 63.7278C76.2767 63.7142 76.3287 63.7844 76.3378 63.8455C76.3491 63.9044 76.254 64.0154 76.091 63.9859C75.9302 63.9565 75.9189 63.8455 75.9189 63.8455Z" fill="white"/>
<path d="M74.6372 61.0787C74.7006 60.9949 74.7504 60.936 74.8727 60.9179C74.995 60.8998 75.0448 60.9949 75.0539 61.0787C75.0652 61.1602 74.9701 61.3119 74.8093 61.2711C74.6463 61.2281 74.6372 61.0787 74.6372 61.0787Z" fill="white"/>
<path d="M77.1461 61.8642C77.2299 61.939 77.2322 61.9956 77.3069 61.9616C77.3816 61.9276 77.4858 61.9276 77.4224 61.8439C77.3567 61.7601 77.3296 61.6944 77.2163 61.7284C77.1009 61.7601 77.0239 61.7782 77.0646 61.8212C77.1054 61.8642 77.1461 61.8642 77.1461 61.8642Z" fill="white"/>
<path d="M76.9696 61.6401C76.8994 61.5631 76.8971 61.5359 77.0217 61.4499C77.1462 61.3616 77.1507 61.4363 77.1258 61.5201C77.0987 61.6039 76.9696 61.6401 76.9696 61.6401Z" fill="white"/>
<path d="M79.7683 60.338C79.5668 60.3018 79.4173 60.252 79.5306 60.1818C79.6415 60.1116 79.8725 60.0346 79.9178 60.1003C79.9608 60.1682 79.9517 60.261 79.877 60.2995C79.8023 60.3358 79.7683 60.338 79.7683 60.338Z" fill="white"/>
<path d="M79.9109 59.8421C79.9313 59.7923 80.0038 59.7515 80.0083 59.6881C80.0151 59.6247 80.0966 59.6202 80.1125 59.738C80.1306 59.8557 80.1827 59.867 80.0966 59.8987C80.0083 59.9327 79.9721 59.944 79.9608 59.9168C79.9472 59.8897 79.9109 59.8421 79.9109 59.8421Z" fill="white"/>
<path d="M79.551 59.8015C79.517 59.6814 79.4762 59.6113 79.5872 59.6045C79.6981 59.5977 79.7344 59.5841 79.7819 59.6611C79.8295 59.7381 79.8068 59.7788 79.748 59.8196C79.6913 59.8603 79.6619 59.8535 79.6415 59.849C79.6211 59.8467 79.551 59.8015 79.551 59.8015Z" fill="white"/>
<path d="M80.4612 80.1334C80.4884 79.9636 80.3525 79.9545 80.3435 79.8368C80.3344 79.7213 80.3706 79.676 80.4612 79.676C80.5518 79.676 80.6401 79.7032 80.7125 79.8368C80.785 79.9727 80.9639 79.9636 80.785 80.0338C80.6039 80.1063 80.5495 80.1515 80.5269 80.1334C80.5065 80.1153 80.4612 80.1334 80.4612 80.1334Z" fill="white"/>
<path d="M81.1088 79.4609C81.1632 79.3454 81.2243 79.2752 81.3239 79.3635C81.4236 79.4541 81.487 79.479 81.3602 79.5515C81.2333 79.6239 81.2967 79.5696 81.1541 79.7123C81.0092 79.8549 80.9186 79.9002 80.9548 79.7938C80.9911 79.6851 81.1088 79.4609 81.1088 79.4609Z" fill="white"/>
<path d="M82.1821 80.455C82.0757 80.2852 82.0395 80.1425 82.0214 80.0972C82.0033 80.0519 82.1369 80.0248 82.2365 80.1606C82.3361 80.2942 82.3814 80.2761 82.3995 80.3825C82.4176 80.4912 82.4697 80.5795 82.3542 80.5569C82.2365 80.5343 82.1821 80.455 82.1821 80.455Z" fill="white"/>
<path d="M83.0109 80.2714C83.02 80.1854 83.0562 79.9816 83.1536 80.1514C83.2532 80.3212 83.3438 80.2714 83.217 80.3257C83.0924 80.3824 83.0743 80.3733 83.0472 80.3733C83.02 80.3733 83.0109 80.2714 83.0109 80.2714Z" fill="white"/>
<path d="M83.2781 80.0089C83.405 80.0338 83.5499 80.0157 83.577 80.0972C83.6042 80.1765 83.7559 80.2308 83.731 80.0972C83.7038 79.9636 83.5408 79.864 83.4955 79.864C83.4502 79.864 83.3076 79.8097 83.2261 79.864C83.1445 79.9183 83.2781 80.0089 83.2781 80.0089Z" fill="white"/>
<path d="M79.7502 80.0792C79.7139 80.0339 79.7049 79.7871 79.8679 79.9071C80.0287 80.0248 80.0921 80.043 80.0378 80.0973C79.9834 80.1516 79.9925 80.0769 79.9313 80.1403C79.8679 80.2037 79.7864 80.1245 79.7502 80.0792Z" fill="white"/>
<path d="M79.1071 81.5283C79.089 81.4038 78.8648 81.3585 78.9984 81.2249C79.1343 81.089 79.2702 81.2068 79.2951 81.2951C79.3222 81.3857 79.3766 81.474 79.3041 81.5465C79.2339 81.6167 79.1071 81.5283 79.1071 81.5283Z" fill="white"/>
<path d="M77.8934 81.5373C77.8209 81.5192 77.7756 81.4286 77.6941 81.4377C77.6149 81.4468 77.4699 81.2588 77.7485 81.295C78.027 81.3313 78.036 81.3064 78.036 81.3675C78.036 81.4286 78.0451 81.5011 78.0021 81.5373C77.9568 81.5736 77.8934 81.5373 77.8934 81.5373Z" fill="white"/>
<path d="M83.2011 76.9316C83.1626 76.85 83.0924 76.6938 83.2351 76.7459C83.38 76.7957 83.3076 76.6712 83.5317 76.644C83.7559 76.6168 83.808 76.7164 83.7333 76.7866C83.6585 76.8591 83.4502 76.9406 83.3891 76.9655C83.3257 76.9927 83.2011 76.9316 83.2011 76.9316Z" fill="white"/>
<path d="M83.8374 76.3449C83.6767 76.2679 83.6291 76.1615 83.7333 76.1162C83.8374 76.0732 83.774 76.234 84.0095 76.2159C84.2428 76.1978 84.3152 76.1978 84.2609 76.2861C84.2065 76.3766 84.1522 76.4559 84.0095 76.4468C83.8646 76.4378 83.8374 76.3449 83.8374 76.3449Z" fill="white"/>
<path d="M57.0927 78.2538C56.9591 78.1474 56.7984 78.1315 56.9048 78.0319C57.0112 77.9323 57.0429 78.0387 57.1335 77.9277C57.2218 77.8168 57.3509 77.656 57.3509 77.656C57.3509 77.656 57.6294 77.7556 57.6339 78.0704C57.6385 78.3874 57.5049 78.4802 57.523 78.7248C57.5388 78.9671 57.523 79.1007 57.523 79.1165C57.523 79.1347 57.2943 79.0237 57.2943 78.7746C57.2943 78.5255 57.0927 78.2538 57.0927 78.2538Z" fill="white"/>
<path d="M66.2884 49.3536C66.2929 49.3559 66.2906 49.4306 66.3722 49.4442C66.4537 49.4601 66.4899 49.451 66.4899 49.451C66.4899 49.451 66.422 49.5121 66.354 49.5937C66.2839 49.6752 66.2159 49.7024 66.1887 49.7137C66.1616 49.7273 66.1367 49.7476 66.1321 49.725C66.1299 49.7024 66.1955 49.6186 66.2204 49.5416C66.2454 49.4646 66.2884 49.3536 66.2884 49.3536Z" fill="white"/>
<path d="M65.3464 50.2774C65.3464 50.2729 65.3442 50.2706 65.3419 50.2661C65.3238 50.2412 65.2649 50.2185 65.2853 50.18C65.3102 50.1393 65.3781 50.1008 65.4166 50.0895C65.4551 50.0804 65.5706 50.1461 65.5842 50.1868C65.5955 50.2299 65.6408 50.2299 65.6023 50.291C65.5638 50.3499 65.5231 50.3295 65.5027 50.3476C65.4823 50.3657 65.3464 50.2774 65.3464 50.2774Z" fill="white"/>
<path d="M65.6521 50.4742C65.6612 50.4742 65.7608 50.4878 65.8197 50.5309C65.8785 50.5739 65.9102 50.6124 65.8265 50.6282C65.7427 50.6441 65.6227 50.6418 65.6181 50.6237C65.6113 50.6056 65.6521 50.4742 65.6521 50.4742Z" fill="white"/>
<path d="M66.3744 49.7906C66.3676 49.8109 66.3676 49.8042 66.2906 49.9015C66.2114 49.9966 66.1865 50.0125 66.1978 50.0147C66.2114 50.0193 66.2702 50.0442 66.311 50.0034C66.354 49.9627 66.3835 49.9694 66.4061 49.9151C66.4287 49.863 66.397 49.777 66.397 49.777L66.3744 49.7906Z" fill="white"/>
<path d="M66.3948 49.6871C66.4017 49.6688 66.4039 49.6483 66.4495 49.6096C66.4951 49.5709 66.486 49.6119 66.4632 49.6392C66.4427 49.6666 66.4358 49.6871 66.4153 49.6871C66.3948 49.6871 66.3948 49.6871 66.3948 49.6871Z" fill="white"/>
<path d="M66.7096 49.777C66.7368 49.8042 66.8183 49.8608 66.8273 49.9015C66.8364 49.9423 66.7866 49.983 66.7639 49.9513C66.7413 49.9196 66.7458 49.9491 66.7368 49.9015C66.7277 49.854 66.7096 49.777 66.7096 49.777Z" fill="white"/>
<path d="M66.868 49.7769C66.9043 49.7588 66.8997 49.7113 66.9269 49.6864C66.9518 49.6615 67.0379 49.5686 67.0107 49.6864C66.9835 49.8041 66.9564 49.8539 66.936 49.8698C66.9133 49.8856 66.9043 49.8992 66.8907 49.8698C66.8771 49.8403 66.868 49.7769 66.868 49.7769Z" fill="white"/>
<path d="M66.0257 50.1619C66.0348 50.18 66.0483 50.2321 66.1027 50.2547C66.157 50.2796 66.1797 50.3023 66.1842 50.2773C66.1865 50.2524 66.191 50.2366 66.1548 50.2072C66.1208 50.1777 66.0257 50.1619 66.0257 50.1619Z" fill="white"/>
<path d="M66.0212 49.9628C66.0234 49.9538 66.0438 49.913 66.0755 49.9017C66.1095 49.8881 66.1253 49.8564 66.1208 49.9017C66.114 49.947 66.0846 49.9538 66.0665 49.9719C66.0484 49.99 66.037 49.9968 66.0325 49.9945C66.0302 49.99 66.0212 49.9628 66.0212 49.9628Z" fill="white"/>
<path d="M66.0509 50.1055C66.0258 50.0828 66.0031 50.06 66.0053 50.0554C66.0076 50.0531 66.0464 50.0326 66.06 50.0417C66.0737 50.0486 66.0874 50.0509 66.0942 50.0782C66.1033 50.1055 66.1124 50.1033 66.1056 50.1146C66.101 50.126 66.0509 50.1055 66.0509 50.1055Z" fill="white"/>
<path d="M66.2657 50.1732C66.2703 50.1483 66.2748 50.0917 66.3178 50.0713C66.3609 50.0509 66.3858 50.0396 66.3948 50.0328C66.4016 50.026 66.4084 50.0147 66.4107 50.0192C66.4107 50.026 66.3993 50.0736 66.3676 50.1075C66.3382 50.1438 66.345 50.1392 66.3201 50.1551C66.2952 50.1709 66.2657 50.1732 66.2657 50.1732Z" fill="white"/>
<mask id="mask7_72_4240" style="mask-type:luminance" maskUnits="userSpaceOnUse" x="74" y="83" width="2" height="2">
<path d="M74.644 83.829H75.8033V84.0939H74.644V83.829Z" fill="white"/>
</mask>
<g mask="url(#mask7_72_4240)">
<path d="M75.115 83.9807C75.1263 83.9603 75.1671 83.8947 75.2124 83.8947C75.2576 83.8947 75.4592 83.9014 75.3097 83.9807C75.1603 84.0577 75.115 83.9807 75.115 83.9807Z" fill="white"/>
</g>
<mask id="mask8_72_4240" style="mask-type:luminance" maskUnits="userSpaceOnUse" x="75" y="83" width="1" height="2">
<path d="M75.5679 83.8539H75.7445V84.0894H75.5679V83.8539Z" fill="white"/>
</mask>
<g mask="url(#mask8_72_4240)">
<path d="M75.5779 84.0587C75.5779 84.0202 75.5915 83.9024 75.6232 83.8957C75.6571 83.8911 75.716 83.8119 75.7273 83.9228C75.7409 84.0338 75.7545 84.0655 75.716 84.0836C75.6753 84.104 75.5779 84.0587 75.5779 84.0587Z" fill="white"/>
</g>
<path d="M75.3301 83.1812C75.3301 83.1812 75.2645 83.0385 75.3301 83.0204C75.3958 83.0001 75.4796 82.948 75.5317 82.9865C75.5838 83.025 75.6562 83 75.6177 83.0997C75.577 83.2016 75.577 83.2537 75.4864 83.2605C75.3958 83.265 75.3301 83.1812 75.3301 83.1812Z" fill="white"/>
<path d="M75.9619 82.8123C75.9506 82.7919 75.9619 82.6764 76.014 82.6764C76.066 82.6764 76.1068 82.7149 76.0932 82.7806C76.0796 82.844 76.066 82.8711 76.0479 82.8711C76.0276 82.8711 75.9619 82.8123 75.9619 82.8123Z" fill="white"/>
<path d="M74.2477 80.4391C74.2092 80.3621 74.2205 79.8957 74.3269 80.1289C74.4311 80.3621 74.4175 80.4391 74.4175 80.4391H74.2477Z" fill="white"/>
<path d="M75.0697 80.2511C75.149 80.2851 75.3052 80.2851 75.3301 80.3621C75.3573 80.439 75.4343 80.5568 75.278 80.5568C75.1218 80.5568 75.0176 80.5568 75.0176 80.5568L75.0697 80.2511Z" fill="white"/>
<path d="M75.6041 80.4052C75.6561 80.3372 75.6561 80.1425 75.7603 80.1289C75.8667 80.1153 75.9301 80.104 75.9188 80.2512C75.9052 80.4006 75.8667 80.3757 75.826 80.4391C75.7875 80.5048 75.6041 80.4052 75.6041 80.4052Z" fill="white"/>
<path d="M82.6079 82.0468C82.6079 82.0468 82.6464 81.8543 82.7121 81.8408C82.7777 81.8272 82.8298 81.8272 82.8547 81.9177C82.8819 82.0083 82.8547 82.1261 82.8547 82.1261L82.6079 82.0468Z" fill="white"/>
<path d="M83.2464 82.7488C83.2464 82.7488 83.0516 82.5677 83.115 82.5405C83.1807 82.5156 83.2849 82.425 83.337 82.4884C83.389 82.5541 83.4026 82.5179 83.389 82.6062C83.3777 82.6968 83.2464 82.7488 83.2464 82.7488Z" fill="white"/>
<mask id="mask9_72_4240" style="mask-type:luminance" maskUnits="userSpaceOnUse" x="85" y="82" width="1" height="2">
<path d="M85.5403 82.6786H85.9479V83.0318H85.5403V82.6786Z" fill="white"/>
</mask>
<g mask="url(#mask9_72_4240)">
<path d="M85.5946 83.0206C85.5946 83.0206 85.5697 82.6696 85.7124 82.7488C85.8573 82.8258 85.9343 83.007 85.9479 83.0206C85.9615 83.0342 85.5946 83.0206 85.5946 83.0206Z" fill="white"/>
</g>
<path d="M9.53282 130.692C7.92887 130.692 6.37094 130.494 4.86559 130.1C3.36682 129.706 2.14743 129.18 1.21069 128.522L3.03814 124.407C3.92229 124.986 4.94776 125.456 6.11457 125.814C7.27809 126.176 8.42846 126.353 9.55911 126.353C11.6955 126.353 12.767 125.814 12.767 124.736C12.767 124.177 12.4581 123.76 11.8467 123.487C11.2419 123.218 10.2625 122.932 8.91491 122.632C7.42271 122.31 6.1803 121.962 5.18112 121.594C4.18852 121.226 3.33395 120.641 2.61744 119.832C1.90749 119.027 1.55252 117.936 1.55252 116.559C1.55252 115.359 1.8812 114.278 2.53855 113.311C3.19591 112.338 4.17537 111.572 5.48351 111.01C6.78836 110.442 8.39231 110.156 10.2954 110.156C11.5903 110.156 12.8656 110.307 14.1212 110.603C15.3833 110.892 16.4942 111.319 17.4605 111.878L15.7383 116.033C13.8516 115.017 12.0308 114.508 10.2691 114.508C9.15484 114.508 8.34301 114.675 7.83684 115.007C7.32739 115.333 7.07431 115.757 7.07431 116.282C7.07431 116.808 7.37012 117.203 7.96831 117.466C8.57308 117.729 9.54597 118.001 10.887 118.281C12.3857 118.606 13.6281 118.951 14.6208 119.319C15.6101 119.681 16.4646 120.263 17.1844 121.068C17.9108 121.867 18.2757 122.948 18.2757 124.315C18.2757 125.499 17.947 126.573 17.2896 127.536C16.6323 128.493 15.6397 129.259 14.3184 129.837C13.0037 130.406 11.4063 130.692 9.53282 130.692Z" fill="white"/>
<path d="M36.818 109.367V130.297H31.7169V128.772C30.7177 129.955 29.2222 130.547 27.2337 130.547C25.8401 130.547 24.5682 130.225 23.4211 129.574C22.2806 128.927 21.3734 128.003 20.6996 126.8C20.0324 125.6 19.7004 124.21 19.7004 122.633C19.7004 121.048 20.0324 119.658 20.6996 118.465C21.3734 117.275 22.2806 116.358 23.4211 115.717C24.5682 115.079 25.8401 114.757 27.2337 114.757C29.0546 114.757 30.4679 115.283 31.4671 116.335V109.367H36.818ZM28.3644 126.287C29.2847 126.287 30.0406 125.965 30.6388 125.315C31.2436 124.667 31.546 123.773 31.546 122.633C31.546 121.502 31.2469 120.618 30.652 119.977C30.0637 119.339 29.3011 119.017 28.3644 119.017C27.4244 119.017 26.6553 119.339 26.0505 119.977C25.4457 120.618 25.1433 121.502 25.1433 122.633C25.1433 123.773 25.4457 124.667 26.0505 125.315C26.6553 125.965 27.4244 126.287 28.3644 126.287Z" fill="white"/>
<path d="M47.9239 130.547C46.2936 130.547 44.8146 130.212 43.4933 129.535C42.1786 128.861 41.1465 127.924 40.4037 126.721C39.6675 125.512 39.2994 124.151 39.2994 122.632C39.2994 121.127 39.6675 119.773 40.4037 118.57C41.1465 117.36 42.172 116.424 43.4802 115.757C44.7949 115.093 46.2739 114.757 47.9239 114.757C49.5804 114.757 51.066 115.093 52.3808 115.757C53.6955 116.424 54.7209 117.357 55.4572 118.557C56.1934 119.75 56.5615 121.107 56.5615 122.632C56.5615 124.151 56.1934 125.512 55.4572 126.721C54.7209 127.924 53.6955 128.861 52.3808 129.535C51.066 130.212 49.5804 130.547 47.9239 130.547ZM47.9239 126.287C48.8705 126.287 49.6396 125.965 50.2378 125.314C50.8425 124.667 51.1449 123.773 51.1449 122.632C51.1449 121.502 50.8425 120.618 50.2378 119.977C49.6396 119.339 48.8705 119.017 47.9239 119.017C46.9839 119.017 46.2148 119.339 45.61 119.977C45.0118 120.618 44.716 121.502 44.716 122.632C44.716 123.773 45.0118 124.667 45.61 125.314C46.2148 125.965 46.9839 126.287 47.9239 126.287Z" fill="white"/>
<path d="M66.8441 130.547C65.1514 130.547 63.6362 130.212 62.2952 129.535C60.9608 128.861 59.9222 127.924 59.1794 126.721C58.4431 125.512 58.075 124.151 58.075 122.632C58.075 121.107 58.4431 119.75 59.1794 118.557C59.9222 117.357 60.9608 116.424 62.2952 115.757C63.6362 115.093 65.1514 114.757 66.8441 114.757C68.5697 114.757 70.0652 115.132 71.3273 115.875C72.5894 116.621 73.4834 117.65 74.0093 118.964L69.868 121.081C69.1646 119.707 68.149 119.017 66.8178 119.017C65.8515 119.017 65.0561 119.339 64.4251 119.977C63.8006 120.618 63.4916 121.502 63.4916 122.632C63.4916 123.773 63.8006 124.667 64.4251 125.314C65.0561 125.965 65.8515 126.287 66.8178 126.287C68.149 126.287 69.1646 125.604 69.868 124.236L74.0093 126.353C73.4834 127.668 72.5894 128.7 71.3273 129.443C70.0652 130.179 68.5697 130.547 66.8441 130.547Z" fill="white"/>
<path d="M86.5782 129.679C86.1312 129.962 85.5823 130.176 84.9348 130.324C84.2841 130.471 83.5938 130.547 82.8576 130.547C80.8658 130.547 79.3342 130.061 78.2561 129.088C77.1846 128.108 76.6522 126.649 76.6522 124.71V119.582H74.4303V115.572H76.6522V111.602H82.0162V115.572H85.5133V119.582H82.0162V124.657C82.0162 125.203 82.1608 125.63 82.45 125.946C82.7393 126.255 83.1271 126.406 83.6201 126.406C84.2413 126.406 84.7837 126.248 85.2504 125.932L86.5782 129.679Z" fill="white"/>
<path d="M96.3007 130.547C94.6705 130.547 93.1914 130.212 91.8701 129.535C90.5554 128.861 89.5234 127.924 88.7806 126.721C88.0443 125.512 87.6762 124.151 87.6762 122.632C87.6762 121.127 88.0443 119.773 88.7806 118.57C89.5234 117.36 90.5489 116.424 91.857 115.757C93.1717 115.093 94.6508 114.757 96.3007 114.757C97.9573 114.757 99.4429 115.093 100.758 115.757C102.072 116.424 103.098 117.357 103.834 118.557C104.57 119.75 104.938 121.107 104.938 122.632C104.938 124.151 104.57 125.512 103.834 126.721C103.098 127.924 102.072 128.861 100.758 129.535C99.4429 130.212 97.9573 130.547 96.3007 130.547ZM96.3007 126.287C97.2473 126.287 98.0164 125.965 98.6146 125.314C99.2194 124.667 99.5218 123.773 99.5218 122.632C99.5218 121.502 99.2194 120.618 98.6146 119.977C98.0164 119.339 97.2473 119.017 96.3007 119.017C95.3607 119.017 94.5916 119.339 93.9868 119.977C93.3886 120.618 93.0928 121.502 93.0928 122.632C93.0928 123.773 93.3886 124.667 93.9868 125.314C94.5916 125.965 95.3607 126.287 96.3007 126.287Z" fill="white"/>
<path d="M112.513 116.848C113.055 116.148 113.765 115.625 114.642 115.283C115.517 114.935 116.516 114.757 117.64 114.757V119.582C117.157 119.523 116.753 119.49 116.43 119.49C115.28 119.49 114.383 119.803 113.735 120.424C113.085 121.048 112.762 121.998 112.762 123.277V130.297H107.412V115.007H112.513V116.848Z" fill="white"/>
<path d="M0.486443 155.135C0.308958 155.135 0.18406 155.102 0.105177 155.03C0.0328674 154.951 0 154.826 0 154.649V144.236C0 144.062 0.0328674 143.94 0.105177 143.868C0.18406 143.789 0.308958 143.75 0.486443 143.75H3.4051C4.57848 143.75 5.47577 144.013 6.10026 144.538C6.73133 145.058 7.04686 145.755 7.04686 146.629C7.04686 147.174 6.86608 147.69 6.50782 148.18C6.14628 148.663 5.73214 148.969 5.25885 149.101V149.166C5.25885 149.124 5.4692 149.206 5.88991 149.416C6.31062 149.62 6.68531 149.916 7.02056 150.31C7.36239 150.704 7.5333 151.224 7.5333 151.861C7.5333 154.044 6.1167 155.135 3.28678 155.135H0.486443ZM3.31307 148.667C3.97043 148.667 4.50946 148.483 4.93017 148.114C5.35088 147.746 5.56123 147.296 5.56123 146.76C5.56123 146.156 5.37717 145.709 5.00905 145.419C4.64093 145.13 4.0526 144.985 3.24734 144.985H1.43304V148.667H3.31307ZM3.79952 153.899C4.51604 153.899 5.06821 153.715 5.45605 153.347C5.85047 152.972 6.04768 152.453 6.04768 151.796C6.04768 151.191 5.83075 150.727 5.40347 150.402C4.9729 150.07 4.34512 149.902 3.52343 149.902H1.43304V153.899H3.79952Z" fill="white"/>
<path d="M8.96401 155.161C8.49729 155.161 8.26721 155.069 8.26721 154.885C8.26721 154.833 8.28365 154.76 8.3198 154.662L12.1719 143.973C12.2311 143.809 12.448 143.723 12.8161 143.723H13.2894C13.6838 143.723 13.9008 143.809 13.9468 143.973L17.7989 154.675C17.8252 154.754 17.8383 154.826 17.8383 154.885C17.8383 155.069 17.605 155.161 17.1415 155.161H17.01C16.6321 155.161 16.4184 155.079 16.3658 154.911L15.4061 152.243H10.6205L9.70025 154.911C9.64766 155.079 9.42744 155.161 9.04289 155.161H8.96401ZM14.9591 151.007L13.2631 146.155C13.2007 145.981 13.1349 145.666 13.0659 145.209H13.0265C12.9377 145.649 12.8588 145.965 12.7898 146.155L11.0807 151.007H14.9591ZM12.7504 142.737C12.5039 142.737 12.3823 142.685 12.3823 142.579C12.3823 142.501 12.4611 142.317 12.6189 142.027C12.7767 141.738 13.0067 141.324 13.3157 140.778C13.4012 140.621 13.5261 140.512 13.6838 140.45C13.8482 140.39 14.0651 140.358 14.328 140.358C14.5975 140.358 14.7948 140.377 14.9197 140.41C15.0413 140.436 15.1037 140.489 15.1037 140.568C15.1037 140.647 15.0183 140.788 14.8539 140.989C14.6962 141.192 14.2689 141.679 13.5786 142.448C13.4012 142.642 13.1251 142.737 12.7504 142.737Z" fill="white"/>
<path d="M24.2091 155.227C22.421 155.227 21.0998 154.76 20.2518 153.82C19.4005 152.883 18.9765 151.424 18.9765 149.442C18.9765 145.587 20.7284 143.657 24.2353 143.657C24.7678 143.657 25.2805 143.717 25.7736 143.828C26.2633 143.943 26.6577 144.078 26.9568 144.236C27.2197 144.394 27.3512 144.535 27.3512 144.657C27.3512 144.814 27.2789 145.012 27.1409 145.248C27.0094 145.485 26.8944 145.603 26.799 145.603C26.7629 145.603 26.6216 145.538 26.3783 145.406C26.1318 145.268 25.8327 145.15 25.4843 145.051C25.1326 144.946 24.7284 144.893 24.2748 144.893C22.9601 144.893 21.9905 145.258 21.3693 145.985C20.7546 146.704 20.449 147.861 20.449 149.455C20.449 151.017 20.7546 152.164 21.3693 152.9C21.9806 153.63 22.9272 153.991 24.2091 153.991C24.7349 153.991 25.1852 153.932 25.5632 153.807C25.9478 153.685 26.3257 153.528 26.6939 153.334C26.8418 153.238 26.9469 153.189 27.0094 153.189C27.1047 153.189 27.223 153.307 27.3644 153.544C27.5024 153.781 27.5747 153.952 27.5747 154.057C27.5747 154.224 27.3972 154.405 27.0488 154.596C26.7234 154.78 26.3126 154.934 25.813 155.056C25.3134 155.168 24.7777 155.227 24.2091 155.227Z" fill="white"/>
<path d="M35.9888 155.227C35.338 155.227 34.7332 155.151 34.1745 155.003C33.6223 154.856 33.2049 154.671 32.9255 154.451C32.7217 154.303 32.6231 154.169 32.6231 154.044C32.6231 153.912 32.6921 153.735 32.8335 153.505C32.9814 153.278 33.0997 153.163 33.1884 153.163C33.2312 153.163 33.3462 153.222 33.5303 153.334C33.8622 153.518 34.2205 153.676 34.6083 153.807C34.9929 153.932 35.453 153.991 35.9888 153.991C36.6198 153.991 37.1326 153.817 37.527 153.465C37.9214 153.117 38.1186 152.65 38.1186 152.072C38.1186 151.677 38.0069 151.349 37.7899 151.086C37.5697 150.816 37.3068 150.599 37.0011 150.441C36.6921 150.284 36.2451 150.093 35.6601 149.863C35.029 149.62 34.5294 149.396 34.1613 149.192C33.7932 148.982 33.4777 148.676 33.2147 148.272C32.9584 147.861 32.8335 147.326 32.8335 146.668C32.8335 146.083 32.9814 145.561 33.2805 145.104C33.5763 144.65 33.997 144.295 34.5426 144.039C35.0948 143.786 35.7258 143.657 36.4358 143.657C36.8105 143.657 37.2246 143.71 37.6716 143.815C38.1252 143.914 38.4802 144.049 38.7365 144.223C38.9534 144.354 39.0652 144.496 39.0652 144.644C39.0652 144.768 38.9929 144.943 38.8548 145.169C38.7234 145.399 38.6182 145.511 38.5393 145.511C38.4867 145.511 38.4078 145.485 38.3027 145.432C38.1975 145.373 38.1318 145.334 38.1055 145.314C37.5599 145.035 36.9945 144.893 36.4095 144.893C35.7784 144.893 35.269 145.058 34.8844 145.38C34.4966 145.705 34.3059 146.152 34.3059 146.721C34.3059 147.099 34.4013 147.401 34.5952 147.628C34.7858 147.848 35.0027 148.016 35.2394 148.127C35.4826 148.243 35.9132 148.423 36.5278 148.667C37.1753 148.913 37.7045 149.153 38.1186 149.39C38.5295 149.62 38.8746 149.955 39.1572 150.402C39.4465 150.842 39.5911 151.398 39.5911 152.072C39.5911 153.054 39.2657 153.827 38.6182 154.386C37.9674 154.948 37.0931 155.227 35.9888 155.227Z" fill="white"/>
<path d="M42.3748 155.161C41.9443 155.161 41.7306 155.043 41.7306 154.806V144.078C41.7306 143.842 41.9443 143.723 42.3748 143.723H42.5063C42.9434 143.723 43.1637 143.842 43.1637 144.078V154.806C43.1637 155.043 42.9434 155.161 42.5063 155.161H42.3748ZM39.798 142.566C39.6862 142.524 39.6271 142.458 39.6271 142.369C39.6271 142.3 39.6468 142.231 39.6797 142.159C39.8572 141.758 40.0675 141.469 40.3107 141.291C40.5539 141.117 40.8432 141.028 41.1784 141.028C41.4052 141.028 41.632 141.061 41.8621 141.12C42.0889 141.183 42.388 141.278 42.7561 141.409C43.0716 141.515 43.3148 141.6 43.4923 141.659C43.6764 141.712 43.8473 141.738 44.0051 141.738C44.153 141.738 44.2812 141.705 44.3863 141.633C44.4981 141.564 44.6131 141.442 44.7282 141.265C44.8333 141.1 44.9385 141.015 45.0437 141.015C45.1127 141.015 45.1686 141.035 45.2146 141.068L45.3461 141.12C45.4677 141.166 45.5301 141.225 45.5301 141.304C45.5301 141.377 45.5038 141.455 45.4512 141.541C45.2738 141.929 45.07 142.208 44.8333 142.382C44.5967 142.56 44.3107 142.645 43.9788 142.645C43.5844 142.645 43.0388 142.514 42.3485 142.251C42.0396 142.146 41.7964 142.073 41.6123 142.027C41.4282 141.975 41.2573 141.948 41.0996 141.948C40.9582 141.948 40.8366 141.985 40.7314 142.054C40.6328 142.126 40.5277 142.251 40.4159 142.435C40.3272 142.586 40.2351 142.658 40.1398 142.658C40.1069 142.658 40.0445 142.652 39.9558 142.632L39.798 142.566Z" fill="white"/>
<path d="M53.4049 155.161C53.0269 155.161 52.8132 155.079 52.7607 154.912L49.04 144.21C49.0039 144.124 48.9874 144.052 48.9874 143.999C48.9874 143.815 49.2175 143.723 49.6842 143.723H49.8288C50.2134 143.723 50.4336 143.809 50.4862 143.973L53.4969 152.663L53.6547 153.505H53.7072L53.8782 152.65L56.8888 143.973C56.9414 143.809 57.1584 143.723 57.5462 143.723H57.6382C58.1017 143.723 58.335 143.815 58.335 143.999C58.335 144.052 58.3219 144.128 58.2956 144.223L54.5618 154.912C54.5092 155.079 54.2923 155.161 53.9176 155.161H53.4049Z" fill="white"/>
<path d="M60.9055 155.161C60.4749 155.161 60.2613 155.043 60.2613 154.806V144.078C60.2613 143.842 60.4749 143.723 60.9055 143.723H61.037C61.4741 143.723 61.6943 143.842 61.6943 144.078V154.806C61.6943 155.043 61.4741 155.161 61.037 155.161H60.9055Z" fill="white"/>
<path d="M65.352 155.135C65.1745 155.135 65.0496 155.102 64.9707 155.03C64.8984 154.951 64.8655 154.826 64.8655 154.648V144.236C64.8655 144.062 64.8984 143.94 64.9707 143.868C65.0496 143.789 65.1745 143.749 65.352 143.749H71.0315C71.1433 143.749 71.2287 143.789 71.2813 143.868C71.3339 143.94 71.3602 144.062 71.3602 144.236V144.499C71.3602 144.676 71.3339 144.801 71.2813 144.88C71.2287 144.952 71.1433 144.985 71.0315 144.985H66.2986V148.693H70.5451C70.6568 148.693 70.7357 148.732 70.7817 148.811C70.8343 148.883 70.8606 149.005 70.8606 149.179V149.442C70.8606 149.62 70.8343 149.744 70.7817 149.823C70.7357 149.896 70.6568 149.929 70.5451 149.929H66.2986V153.899H71.0447C71.1663 153.899 71.2485 153.938 71.2945 154.017C71.3471 154.09 71.3734 154.211 71.3734 154.385V154.648C71.3734 154.826 71.3471 154.951 71.2945 155.03C71.2485 155.102 71.1663 155.135 71.0447 155.135H65.352ZM68.1655 157.975C67.7349 157.975 67.5213 157.856 67.5213 157.62V156.791C67.5213 156.555 67.7579 156.436 68.2312 156.436C68.6585 156.436 68.8754 156.555 68.8754 156.791V157.62C68.8754 157.856 68.6388 157.975 68.1655 157.975ZM66.5089 142.882C66.2624 142.882 66.1408 142.809 66.1408 142.658C66.1408 142.573 66.1704 142.474 66.2328 142.369L67.14 140.936C67.3043 140.699 67.5541 140.581 67.8894 140.581H68.2969C68.6388 140.581 68.8886 140.699 69.0463 140.936L69.9798 142.369C70.0389 142.468 70.0718 142.56 70.0718 142.645C70.0718 142.803 69.9403 142.882 69.6774 142.882H69.6511C69.4407 142.882 69.26 142.813 69.1121 142.671L68.0866 141.475L67.1005 142.671C66.9428 142.813 66.7587 142.882 66.5484 142.882H66.5089Z" fill="white"/>
<path d="M76.5883 155.161C76.1578 155.161 75.9441 155.043 75.9441 154.806V144.985H72.8151C72.7099 144.985 72.631 144.953 72.5785 144.88C72.5259 144.801 72.4996 144.677 72.4996 144.499V144.236C72.4996 144.062 72.5259 143.94 72.5785 143.868C72.631 143.789 72.7099 143.75 72.8151 143.75H80.4536C80.5653 143.75 80.6442 143.789 80.6902 143.868C80.7428 143.94 80.7691 144.062 80.7691 144.236V144.499C80.7691 144.677 80.7428 144.801 80.6902 144.88C80.6442 144.953 80.5653 144.985 80.4536 144.985H77.3772V154.806C77.3772 155.043 77.1569 155.161 76.7198 155.161H76.5883Z" fill="white"/>
<path d="M87.124 155.161C86.6836 155.161 86.4667 155.043 86.4667 154.806V144.078C86.4667 143.842 86.6836 143.723 87.124 143.723H87.4659C87.6401 143.723 87.7748 143.746 87.8734 143.789C87.9786 143.835 88.0706 143.914 88.1495 144.026L93.2506 151.73C93.4346 152.003 93.6121 152.331 93.7896 152.716L93.8554 152.69C93.8291 152.446 93.8159 152.078 93.8159 151.585V144.078C93.8159 143.842 94.0328 143.723 94.4733 143.723H94.5916C95.0189 143.723 95.2358 143.842 95.2358 144.078V154.806C95.2358 155.043 95.0189 155.161 94.5916 155.161H94.2629C93.9803 155.161 93.7929 155.089 93.6976 154.938L88.4519 147.036C88.2678 146.767 88.0871 146.442 87.9129 146.064L87.8471 146.077C87.8734 146.323 87.8866 146.691 87.8866 147.181V154.806C87.8866 155.043 87.6663 155.161 87.2292 155.161H87.124Z" fill="white"/>
<path d="M97.5989 155.161C97.1322 155.161 96.9021 155.069 96.9021 154.885C96.9021 154.833 96.9185 154.76 96.9547 154.662L100.807 143.973C100.866 143.809 101.083 143.723 101.451 143.723H101.924C102.319 143.723 102.536 143.809 102.582 143.973L106.434 154.675C106.46 154.754 106.473 154.826 106.473 154.885C106.473 155.069 106.24 155.161 105.776 155.161H105.645C105.267 155.161 105.053 155.079 105.001 154.912L104.041 152.243H99.2554L98.3351 154.912C98.2825 155.079 98.0623 155.161 97.6778 155.161H97.5989ZM103.594 151.007L101.898 146.156C101.836 145.981 101.77 145.666 101.701 145.209H101.661C101.573 145.649 101.494 145.965 101.425 146.156L99.7156 151.007H103.594Z" fill="white"/>
<path d="M113.238 151.967C113.071 151.967 112.949 151.898 112.87 151.756L109.978 146.708C109.879 146.55 109.748 146.31 109.584 145.985L109.518 145.998C109.544 146.192 109.557 146.491 109.557 146.892V154.806C109.557 155.043 109.337 155.161 108.9 155.161H108.795C108.354 155.161 108.137 155.043 108.137 154.806V144.078C108.137 143.842 108.354 143.723 108.795 143.723H109.373C109.722 143.723 109.952 143.822 110.057 144.013L113.133 149.35C113.324 149.686 113.465 150.027 113.554 150.376C113.639 150.106 113.81 149.745 114.067 149.298L117.051 144.013C117.163 143.822 117.393 143.723 117.735 143.723H118.274C118.701 143.723 118.918 143.842 118.918 144.078V154.806C118.918 155.043 118.701 155.161 118.274 155.161H118.155C117.725 155.161 117.511 155.043 117.511 154.806V146.984C117.511 146.583 117.518 146.284 117.538 146.09L117.472 146.077C117.314 146.402 117.186 146.649 117.091 146.813L114.238 151.756C114.165 151.898 114.047 151.967 113.883 151.967H113.238Z" fill="white"/>
</svg>
